# xmcd CD database file
#
# Track frame offsets:
#	150
#	21292
#	35434
#	51502
#	80029
#
# Disc length: 1476 seconds
#
# Revision: 0
# Processed by: cddbd v1.5.2PL0 Copyright (c) Steve Scherf et al.
# Submitted via: CDex 1.70beta2
#
DISCID=3e05c205
DTITLE=Various Artist - A Taste Of Fingerlickin'
DYEAR=2005
DGENRE=Funk
TTITLE0=A. Skillz and Krafty Kuts - Tricka Technology (Ed Funk Vocal Remix)
TTITLE1=Drumattic Twins - Feeling' Kinda Strange (Radio Edit)
TTITLE2=Plump DJs - Funk Hits The Fan (Radio Edit)
TTITLE3=Soul Of Man - Shake 'Em Down
TTITLE4=Lee Coombs - Shiver (Plump DJs Remix)
EXTD=YEAR: 2005
EXTT0=
EXTT1=
EXTT2=
EXTT3=
EXTT4=
PLAYORDER=
